<svg width="243" height="225" viewBox="0 0 243 225" fill="none" xmlns="http://www.w3.org/2000/svg">
<g filter="url(#filter0_d_18_24)">
<rect x="7" y="3" width="229" height="211" rx="10" fill="url(#paint0_radial_18_24)"/>
</g>
<g filter="url(#filter1_i_18_24)">
<path d="M47 192C47 200.837 39.8366 208 31 208C22.1634 208 15 200.837 15 192C15 183.163 22.1634 176 31 176C39.8366 176 47 183.163 47 192Z" fill="#231F1F"/>
<path d="M47 192C47 200.837 39.8366 208 31 208C22.1634 208 15 200.837 15 192C15 183.163 22.1634 176 31 176C39.8366 176 47 183.163 47 192Z" fill="#231F1F"/>
<path d="M47 192C47 200.837 39.8366 208 31 208C22.1634 208 15 200.837 15 192C15 183.163 22.1634 176 31 176C39.8366 176 47 183.163 47 192Z" fill="#231F1F"/>
</g>
<g filter="url(#filter2_i_18_24)">
<path d="M227 192C227 200.837 219.837 208 211 208C202.163 208 195 200.837 195 192C195 183.163 202.163 176 211 176C219.837 176 227 183.163 227 192Z" fill="#231F1F"/>
<path d="M227 192C227 200.837 219.837 208 211 208C202.163 208 195 200.837 195 192C195 183.163 202.163 176 211 176C219.837 176 227 183.163 227 192Z" fill="url(#paint1_radial_18_24)"/>
<path d="M227 192C227 200.837 219.837 208 211 208C202.163 208 195 200.837 195 192C195 183.163 202.163 176 211 176C219.837 176 227 183.163 227 192Z" fill="#231F1F"/>
</g>
<g filter="url(#filter3_i_18_24)">
<rect x="58" y="183" width="126" height="18" rx="9" fill="url(#paint2_radial_18_24)"/>
</g>
<defs>
<filter id="filter0_d_18_24" x="0" y="0" width="243" height="225" filterUnits="userSpaceOnUse" color-interpolation-filters="sRGB">
<feFlood flood-opacity="0" result="BackgroundImageFix"/>
<feColorMatrix in="SourceAlpha" type="matrix" values="0 0 0 0 0 0 0 0 0 0 0 0 0 0 0 0 0 0 127 0" result="hardAlpha"/>
<feMorphology radius="3" operator="dilate" in="SourceAlpha" result="effect1_dropShadow_18_24"/>
<feOffset dy="4"/>
<feGaussianBlur stdDeviation="2"/>
<feComposite in2="hardAlpha" operator="out"/>
<feColorMatrix type="matrix" values="0 0 0 0 0 0 0 0 0 0 0 0 0 0 0 0 0 0 0.25 0"/>
<feBlend mode="normal" in2="BackgroundImageFix" result="effect1_dropShadow_18_24"/>
<feBlend mode="normal" in="SourceGraphic" in2="effect1_dropShadow_18_24" result="shape"/>
</filter>
<filter id="filter1_i_18_24" x="15" y="176" width="32" height="36" filterUnits="userSpaceOnUse" color-interpolation-filters="sRGB">
<feFlood flood-opacity="0" result="BackgroundImageFix"/>
<feBlend mode="normal" in="SourceGraphic" in2="BackgroundImageFix" result="shape"/>
<feColorMatrix in="SourceAlpha" type="matrix" values="0 0 0 0 0 0 0 0 0 0 0 0 0 0 0 0 0 0 127 0" result="hardAlpha"/>
<feOffset dy="4"/>
<feGaussianBlur stdDeviation="2"/>
<feComposite in2="hardAlpha" operator="arithmetic" k2="-1" k3="1"/>
<feColorMatrix type="matrix" values="0 0 0 0 0 0 0 0 0 0 0 0 0 0 0 0 0 0 0.25 0"/>
<feBlend mode="normal" in2="shape" result="effect1_innerShadow_18_24"/>
</filter>
<filter id="filter2_i_18_24" x="195" y="176" width="32" height="36" filterUnits="userSpaceOnUse" color-interpolation-filters="sRGB">
<feFlood flood-opacity="0" result="BackgroundImageFix"/>
<feBlend mode="normal" in="SourceGraphic" in2="BackgroundImageFix" result="shape"/>
<feColorMatrix in="SourceAlpha" type="matrix" values="0 0 0 0 0 0 0 0 0 0 0 0 0 0 0 0 0 0 127 0" result="hardAlpha"/>
<feOffset dy="4"/>
<feGaussianBlur stdDeviation="2"/>
<feComposite in2="hardAlpha" operator="arithmetic" k2="-1" k3="1"/>
<feColorMatrix type="matrix" values="0 0 0 0 0 0 0 0 0 0 0 0 0 0 0 0 0 0 0.25 0"/>
<feBlend mode="normal" in2="shape" result="effect1_innerShadow_18_24"/>
</filter>
<filter id="filter3_i_18_24" x="58" y="183" width="126" height="22" filterUnits="userSpaceOnUse" color-interpolation-filters="sRGB">
<feFlood flood-opacity="0" result="BackgroundImageFix"/>
<feBlend mode="normal" in="SourceGraphic" in2="BackgroundImageFix" result="shape"/>
<feColorMatrix in="SourceAlpha" type="matrix" values="0 0 0 0 0 0 0 0 0 0 0 0 0 0 0 0 0 0 127 0" result="hardAlpha"/>
<feOffset dy="4"/>
<feGaussianBlur stdDeviation="2"/>
<feComposite in2="hardAlpha" operator="arithmetic" k2="-1" k3="1"/>
<feColorMatrix type="matrix" values="0 0 0 0 0 0 0 0 0 0 0 0 0 0 0 0 0 0 0.25 0"/>
<feBlend mode="normal" in2="shape" result="effect1_innerShadow_18_24"/>
</filter>
<radialGradient id="paint0_radial_18_24" cx="0" cy="0" r="1" gradientUnits="userSpaceOnUse" gradientTransform="translate(122 26) rotate(90) scale(162 177.699)">
<stop offset="0.0338638" stop-color="#A78F85"/>
<stop offset="1" stop-color="#413834"/>
</radialGradient>
<radialGradient id="paint1_radial_18_24" cx="0" cy="0" r="1" gradientUnits="userSpaceOnUse" gradientTransform="translate(211 192) rotate(90) scale(16)">
<stop stop-color="#353131"/>
<stop offset="1" stop-color="#231F1F"/>
</radialGradient>
<radialGradient id="paint2_radial_18_24" cx="0" cy="0" r="1" gradientUnits="userSpaceOnUse" gradientTransform="translate(121 192) scale(63 9)">
<stop stop-color="#1D1C1C"/>
<stop offset="0.990308"/>
</radialGradient>
</defs>
</svg>
